PathFileType        4      (X/Y/Z)      C:\Users\pc\Desktop\IMUTRC\Sujet_04\Sujet_04_velo_100.trc         
DataRate	CameraRate	NumFrames	NumMarkers	Units	OrigDataRate	OrigDataStartFrame	OrigNumFrames
60.0	60.0	4	64	mm	60.0	854	975
Frame#	Time	pHipOrigin			pRightASI			pLeftASI			pRightCSI			pLeftCSI			pRightIschialTub			pLeftIschialTub			pSacrum			pL5SpinalProcess			pL3SpinalProcess			pT12SpinalProcess			pIJ			pT4SpinalProcess			pT8SpinalProcess			pPX			pC7SpinalProcess			pTopOfHead			pRightAuricularis			pLeftAuricularis			pBackOfHead			pRightAcromion			pLeftAcromion			pRightArmLatEpicondyle			pRightArmMedEpicondyle			pLeftArmLatEpicondyle			pLeftArmMedEpicondyle			pRightUlnarStyloid			pRightRadialStyloid			pRightOlecranon			pLeftUlnarStyloid			pLeftRadialStyloid			pLeftOlecranon			pRightTopOfHand			pRightPinky			pRightBallHand			pLeftTopOfHand			pLeftPinky			pLeftBallHand			pRightGreaterTrochanter			pRightKneeLatEpicondyle			pRightKneeMedEpicondyle			pRightPatella			pLeftGreaterTrochanter			pLeftKneeLatEpicondyle			pLeftKneeMedEpicondyle			pLeftPatella			pRightTibialTub			pRightLatMalleolus			pRightMedMalleolus			pLeftTibialTub			pLeftLatMalleolus			pLeftMedMalleolus			pRightHeelFoot			pRightFirstMetatarsal			pRightFifthMetatarsal			pRightPivotFoot			pRightHeelCenter			pRightToe			pLeftHeelFoot			pLeftFirstMetatarsal			pLeftFifthMetatarsal			pLeftPivotFoot			pLeftHeelCenter			pLeftToe			
		X1	Y1	Z1	X2	Y2	Z2	X3	Y3	Z3	X4	Y4	Z4	X5	Y5	Z5	X6	Y6	Z6	X7	Y7	Z7	X8	Y8	Z8	X9	Y9	Z9	X10	Y10	Z10	X11	Y11	Z11	X12	Y12	Z12	X13	Y13	Z13	X14	Y14	Z14	X15	Y15	Z15	X16	Y16	Z16	X17	Y17	Z17	X18	Y18	Z18	X19	Y19	Z19	X20	Y20	Z20	X21	Y21	Z21	X22	Y22	Z22	X23	Y23	Z23	X24	Y24	Z24	X25	Y25	Z25	X26	Y26	Z26	X27	Y27	Z27	X28	Y28	Z28	X29	Y29	Z29	X30	Y30	Z30	X31	Y31	Z31	X32	Y32	Z32	X33	Y33	Z33	X34	Y34	Z34	X35	Y35	Z35	X36	Y36	Z36	X37	Y37	Z37	X38	Y38	Z38	X39	Y39	Z39	X40	Y40	Z40	X41	Y41	Z41	X42	Y42	Z42	X43	Y43	Z43	X44	Y44	Z44	X45	Y45	Z45	X46	Y46	Z46	X47	Y47	Z47	X48	Y48	Z48	X49	Y49	Z49	X50	Y50	Z50	X51	Y51	Z51	X52	Y52	Z52	X53	Y53	Z53	X54	Y54	Z54	X55	Y55	Z55	X56	Y56	Z56	X57	Y57	Z57	X58	Y58	Z58	X59	Y59	Z59	X60	Y60	Z60	X61	Y61	Z61	X62	Y62	Z62	X63	Y63	Z63	X64	Y64	Z64	
854	14.217	4.920011254230237E-14	1250.02225	5.863441087832831E-14	87.00218838981627	1320.48379	160.4867477229617	91.94083640693731	1363.36824	-130.3301151302652	52.4185651670955	1402.9768	145.0315145433267	56.45364870973039	1438.05867	-92.933101403823	-70.75751377004985	1191.77087	51.05309945775381	-68.75911099981083	1209.34158	-67.9520174891149	-67.18809383209327	1284.68718	3.9724382326125856	-6.498289709444686	1383.55967	17.7375872006349	63.1056538837218	1482.55129	33.50866625683449	131.125208496407	1570.28573	47.57686187573444	397.0366244635111	1582.13852	77.69003187435723	288.45654237275573	1695.66319	73.4751738431846	210.28570011827406	1646.10783	61.39371924457623	293.1659876093368	1510.00925	61.20398888647628	337.0838676220087	1724.25283	81.11171228443303	574.9847673253707	1803.88688	109.07021982245107	490.39961287742096	1746.70761	166.43893992390176	501.43727898669476	1758.20302	30.129922930379365	466.43295274405057	1797.63289	99.6999951016617	324.24052601889593	1671.18332	265.1207500310321	358.4395561294925	1707.51598	-106.92993890546143	337.6759902970967	1344.96366	269.08651214689223	320.8613165909155	1342.5812	204.19932899814052	398.38884475849994	1383.08318	-92.40042648165817	369.54620908179515	1382.36844	-31.888246985971733	439.70705307178343	1111.66033	210.9188518303518	487.9368388109564	1134.17466	218.26693895451982	305.60848790516394	1333.58737	235.50302098007955	456.8828272122516	1149.54159	20.397641063472577	506.5716540724394	1168.42267	28.465250991231926	359.9955186233639	1374.26804	-68.65960504801822	663.4856113487589	1067.10814	295.43501274973534	567.4479804996904	1043.99819	259.00289568752146	503.55609192082727	1085.69141	218.53423105520176	678.2163571990654	1055.13623	9.152979267302896	573.7901445396552	1056.44659	22.21250305058129	512.7933260097085	1115.71053	37.08456339079129	-1.4376423730861916	1208.38859	176.38232339947228	191.9738607751574	819.09306	195.79800135270284	210.35657136015243	816.82971	113.73933078712938	241.5835290769748	841.72652	160.31298432889895	20.970854517352322	1253.65552	-177.84419255572283	416.9689220841301	1075.50635	-206.1921578556487	429.5598672452627	1074.25555	-122.98790380914843	439.8318580869829	1119.10554	-163.56334132987172	245.8919535888381	770.78849	164.7062778730723	70.93135132856162	394.29872	110.29261681434241	94.52262950373562	398.05111	48.43317545512821	449.7764817509529	1022.85377	-168.02025098421828	167.02894531617784	714.08571	-163.71288589684525	178.05681969040222	712.00105	-98.40188541838049	15.593574066171943	330.15073	48.884048616118235	183.81396131630154	267.19397	60.98022588387242	154.7753903476688	260.10612	140.16187672213783	190.83164529980996	254.62644	106.40822944071067	53.790647212691844	316.15372	61.69598758817892	270.3924391955566	219.78281999999996	132.56283136617327	106.05707303311034	640.16959	-123.51448184920544	277.45310820030784	588.64868	-103.74193159943545	267.040725731213	589.42299	-187.68568987503858	295.18802634288147	582.03733	-147.4694149611922	147.09857240955552	629.98453	-128.71751845881602	381.1587933307352	554.9963	-158.33860654639602	
855	14.233	4.920011254230237E-14	1250.02225	5.863441087832831E-14	86.34714724356576	1320.72204	160.72537922050302	92.51354482859114	1363.07043	-130.1108979241276	51.86946524935223	1403.21505	145.02575067879587	56.88789533737488	1437.87998	-93.06421436038869	-71.0328523851557	1191.88999	50.81762258514932	-68.4853496971734	1209.22246	-68.18173049718857	-67.158727891528	1284.68718	3.6367839960316672	-6.5218982133552394	1383.61923	17.524133859028105	63.21158868435293	1482.61085	33.26426323431791	131.36802011813464	1570.22617	47.217605563119065	397.25007014467343	1581.48334	77.66642979832278	289.00406497803067	1695.24626	73.01574782703725	210.70368707945164	1645.86958	60.96523648146258	293.15864643233755	1509.59232	61.287898923541405	337.71530792479314	1723.77633	80.6596210174088	575.8606029902272	1802.63608	108.72406978393411	491.0237043427617	1745.75462	166.0707651218188	502.22919695404175	1757.19047	29.77643814273918	467.35441401593926	1796.73947	99.31556063311172	324.74242301713866	1670.88551	264.69960844491766	359.1092808623098	1706.38431	-107.33640456545349	337.3109777803949	1344.66586	269.39279401503177	320.58021411127885	1342.22382	204.51295204327926	398.3683985399706	1382.01107	-91.68350648978472	368.9986864765203	1381.35589	-31.428820969824386	439.34361786755005	1111.30296	211.69032357916953	487.573403606723	1133.81729	219.03841070333752	305.2891009954943	1333.28956	235.77101841818615	456.7491050160919	1148.70773	21.44287411492772	506.3996397858023	1167.5888	29.464864863530977	359.7689602402271	1373.25549	-68.0029865892993	663.0618681834949	1066.75077	296.41258900271623	567.0315708509811	1043.64082	259.89656833131323	503.18530787915034	1085.33404	219.38961926896073	678.1738926448463	1054.42149	10.121651119136573	573.7020479505277	1055.67229	23.21945167200346	512.666944990548	1114.93622	38.045886405181335	-1.246213795045449	1209.10333	176.61045909507754	196.78521421238895	822.19027	197.82548375098392	214.87790382827967	819.62911	115.69915638693618	246.00467652068124	845.1811	161.96811180091075	22.13094728678236	1252.82165	-177.57358587802224	418.1993473956329	1074.07687	-200.92666981333832	429.97475842506356	1073.48125	-117.58237789292866	440.69568590887116	1117.97387	-158.45675487222394	247.81459961761823	771.3841	164.95903991139318	52.66085094476978	407.16406	97.32154337365671	76.52746773504961	411.80987	35.69757888704703	454.26165248685857	1023.2707	-163.2310016703094	190.69534778929713	697.94448	-167.47662349911405	200.90770212014007	695.56201	-102.02558391417153	-5.156019869018614	346.05371	35.73835164920153	160.61307531356135	276.78341	46.859076594354484	131.52887231002032	270.29118	126.0790042022084	167.2568206304559	263.67983	92.21208860359528	32.51397689075573	330.56766	48.292796645536114	245.63391325286202	225.67943999999997	117.88263050975048	133.41089147837678	620.2164	-128.35077510544016	307.03482138280003	578.22538	-106.0157666525492	297.8648784960524	578.64231	-190.14676572156236	325.76201222067345	572.7457	-149.48732569060385	175.0266689284998	612.29469	-132.86939820035886	413.18604880456667	550.64829	-159.0878881265969	
856	14.25	4.920011254230237E-14	1250.02225	5.863441087832831E-14	85.49334277015134	1321.43678	160.81979271994862	93.1465547833995	1362.59394	-130.09779288259753	51.09799350053453	1403.81066	144.66231547456255	57.305875870676374	1437.52261	-93.49270478394676	-71.27724897979618	1192.06868	50.711695444962615	-68.12767835747088	1208.92465	-68.40410232826302	-67.24421524106151	1284.68718	3.1642529383542524	-6.645669992921684	1383.6788	17.005977194318525	63.133442511818664	1482.67041	32.7078221395754	131.32815837563328	1570.28573	46.70679007540873	397.1131933235769	1581.12597	77.78128308842159	289.11000620653783	1695.12714	72.7713524649651	210.74039419701617	1645.86958	60.54567220781658	292.9525355002983	1509.41363	61.22758330206629	337.8139003158567	1723.59765	80.49914212027787	576.1962572268081	1801.80222	108.75343572449935	491.1915320773363	1745.159	166.08544104794112	502.3970246886164	1756.59485	29.791114068861617	467.6900605920757	1796.20341	99.3449330015531	324.42145113455626	1670.82595	264.5024224302222	359.5435274899543	1705.90781	-107.46751752201914	336.7015622411766	1344.66586	269.5931410825402	320.18425068109894	1342.16426	204.6897046951976	398.38466586688196	1381.47501	-91.38614311111286	368.6483498859409	1380.87939	-31.290366836259437	439.1847162828875	1111.36252	212.05692106878416	487.36887641502824	1133.93642	219.4432926229851	304.8092275282494	1333.23	235.9404298931053	456.758031166004	1148.35036	21.824147530664675	506.45419154274657	1167.23143	29.807853849235073	359.57910897465473	1372.71944	-67.76593240422636	662.8646757409233	1066.92946	296.7335532248542	566.8726628384426	1043.75994	260.2631581604835	503.02640629448774	1085.45316	219.75621675857525	678.3343715419772	1054.36193	10.220243510200078	573.8934765285685	1055.43404	23.447587367608776	512.8054067845574	1114.63841	38.39621656788461	-0.5586520832928272	1210.59238	176.96655312231167	205.89709917126572	828.38469	201.9203026296031	223.4553712234116	825.10879	119.6203913268943	254.37445567130553	851.91158	165.36384123871562	22.917109050042967	1251.09436	-177.37797717579517	416.69736407162895	1066.8699	-196.32301228105882	428.0002504712583	1067.16771	-112.89322535067129	439.56606393901257	1111.00515	-154.24329567302513	253.35022188416696	775.55342	166.9230520632624	37.90054142774447	425.44951	87.23648108162736	62.179381314671076	430.75051	25.73313374964728	455.70236885458695	1018.38664	-158.91949546538993	211.76780984879503	678.2891	-171.55185378826593	221.29418101292214	675.4897	-105.99173243819988	-22.243843246151023	367.49594	25.196001359724953	140.77499866154233	291.73341	34.892342535497	111.77470569506643	285.41986	114.11961132035016	147.0977797562989	277.85552	80.04816210216624	14.86078626896872	350.40172	37.44731911285682	223.93927005806884	236.6388	104.90792356278969	157.32587586563062	597.28513	-133.02286127762318	332.36219578478705	563.3945	-107.98536837088571	324.47295639422293	563.21582	-192.25799151928942	351.9977351925747	558.62957	-151.20834549480577	199.35546138531328	591.2694	-136.9556837651102	440.4864203518951	540.58236	-159.44745025505534	
857	14.267	4.920011254230237E-14	1250.02225	5.863441087832831E-14	84.39514293466479	1322.74714	160.80826499088695	93.84721510880608	1361.70051	-130.37471647061622	49.95100577263454	1405.0019	143.75869884205355	57.6986834433511	1436.86743	-94.59982310890098	-71.52898551886757	1192.42605	50.68966425352047	-67.65514729979347	1208.32903	-68.48958967779653	-67.3076854874734	1284.62762	2.4399841090371197	-6.900568817374333	1383.85748	16.053572669396125	62.75634922026799	1482.90866	31.702450830621597	130.89076355092809	1570.52398	45.90753093106248	396.5273862882691	1581.30465	78.19508349753673	288.59918305838306	1695.30582	72.81122063534252	210.26629225474642	1646.16739	60.16597733711632	292.4637435435857	1509.65188	61.01571493337238	337.31934449461323	1723.71677	80.83637366932714	575.7709290886312	1801.74265	109.26582852467814	490.8044947970685	1745.09944	166.64346711559645	501.84215967377395	1756.71398	30.3344642103946	467.21176566986753	1796.26297	99.9795202688299	322.8050946343601	1671.12376	264.614666480727	359.5671219055443	1706.44387	-107.25406541298071	336.0302678563353	1345.02323	269.534410433978	319.81766085192874	1342.52163	204.530796682659	398.5435674515445	1381.89194	-91.75274060072746	368.68506343138154	1381.23676	-31.70992344946106	439.19939220900994	1112.0177	211.88909333420958	487.34526791111773	1134.71072	219.22983928137828	304.30575321753827	1333.46825	235.89638159854155	457.13038485970503	1148.76729	21.433955625460044	506.78826080641466	1167.76749	29.372036336998264	359.7380105593173	1373.07681	-68.13252989384097	663.1678017515576	1067.94201	296.16820006852015	567.12282972549	1044.59381	259.8199930433713	503.094056665086	1086.22746	219.4661881290266	678.947973633258	1055.49361	9.005606644270244	574.52333185844	1056.20835	22.53031264778241	513.2837017067657	1115.17447	37.76162930060789	0.7399024801465686	1213.33222	177.58748996271555	219.80564755293113	838.56975	208.21043040850967	236.35697098365483	833.98349	125.82242251667338	266.95192892402946	862.87094	170.43830665244283	23.154163235115888	1248.17584	-177.18812591022282	411.79902533215215	1053.05157	-192.523818283993	423.14753733881366	1054.60018	-109.13231578363835	435.8393392701514	1097.30595	-151.2717024941897	263.1187176413182	783.5347	171.24443575289447	26.99657801131047	449.7507	80.91328735187585	51.84078514289167	455.28995	19.713067263098473	454.14268557657795	1006.95079	-155.58919901972638	229.62799103810943	654.10704	-176.11951720085003	238.51400217741616	650.83114	-110.48857033905232	-35.201572075806894	396.14514	18.185791303563654	124.47647758428684	313.23519	25.475979477035487	95.51447547571998	306.56428	104.74888152936525	130.31780913189834	298.16607	70.33600654962518	1.1536104540611785	377.2045	29.821929652946366	205.40866003108079	253.31608	93.94339852750477	177.69451011903294	570.95885	-137.75156306100158	353.46456917019304	543.56044	-109.98639345616253	346.7264963991469	542.42877	-194.36968334260266	373.83329589676555	539.15288	-152.8915609828814	219.96271947581246	566.43215	-141.02933797436197	463.1348982877495	524.20288	-159.7912175100647	
